{
  "source": "C:\\Users\\Peter\\Desktop\\stuff\\MIUN\\quantitative_research\\video_compression\\videos\\UVG\\Beauty_1920x1080_120fps_420_8bit_YUV.y4m",
  "output": "C:\\Users\\Peter\\Desktop\\stuff\\MIUN\\quantitative_research\\video_compression\\compressed_videos\\UVG\\hevc\\1.5\\Beauty_1920x1080_120fps_420_8bit_YUV_hevc.mp4",
  "codec": "hevc",
  "ok": "[yuv4mpegpipe @ 000002080a636740] Stream #0: not enough frames to estimate rate; consider increasing probesize\nInput #0, yuv4mpegpipe, from 'C:\\Users\\Peter\\Desktop\\stuff\\MIUN\\quantitative_research\\video_compression\\videos\\UVG\\Beauty_1920x1080_120fps_420_8bit_YUV.y4m':\n  Duration: 00:00:05.00, start: 0.000000, bitrate: 2985989 kb/s\n  Stream #0:0: Video: rawvideo (I420 / 0x30323449), yuv420p(progressive), 1920x1080, 120 fps, 120 tbr, 120 tbn\n[out#0/mp4 @ 000002080a639a80] Codec AVOption b:a (set bitrate (in bits/s)) has not been used for any stream. The most likely reason is either wrong type (e.g. a video option with no video streams) or that it is a private option of some decoder which was not actually used for any stream.\nStream mapping:\n  Stream #0:0 -> #0:0 (rawvideo (native) -> hevc (libx265))\nPress [q] to stop, [?] for help\n[libx265 @ 000002080a63cac0] Unknown option: \"aq-mode.\nx265 [info]: HEVC encoder version 4.1+190-8f11c33ac\nx265 [info]: build info [Windows][GCC 15.1.0][64 bit] 10bit\nx265 [info]: using cpu capabilities: MMX2 SSE2Fast LZCNT SSSE3 SSE4.2 AVX FMA3 BMI2 AVX2\nx265 [info]: Main 10 profile, Level-5 (Main tier)\nx265 [info]: Thread pool created using 12 threads\nx265 [info]: Slices                              : 1\nx265 [info]: frame threads / pool features       : 3 / wpp(17 rows)\nx265 [info]: Coding QT: max CU size, min CU size : 64 / 8\nx265 [info]: Residual QT: max TU size, max depth : 32 / 1 inter / 1 intra\nx265 [info]: ME / range / subpel / merge         : star / 57 / 3 / 3\nx265 [info]: Keyframe min / max / scenecut / bias  : 25 / 250 / 40 / 5.00 \nx265 [info]: Lookahead / bframes / badapt        : 25 / 4 / 2\nx265 [info]: b-pyramid / weightp / weightb       : 1 / 1 / 0\nx265 [info]: References / ref-limit  cu / depth  : 4 / on / on\nx265 [info]: AQ: mode / str / qg-size / cu-tree  : 2 / 1.0 / 32 / 1\nx265 [info]: Rate Control / qCompress            : ABR-1500 kbps / 0.60\nx265 [info]: VBV/HRD buffer / max-rate / init    : 1500 / 1500 / 0.750\nx265 [info]: tools: rect limit-modes rd=4 psy-rd=2.00 rdoq=2 psy-rdoq=1.00\nx265 [info]: tools: rskip mode=1 signhide tmvp strong-intra-smoothing lslices=4\nx265 [info]: tools: deblock sao dhdr10-info\nOutput #0, mp4, to 'C:\\Users\\Peter\\Desktop\\stuff\\MIUN\\quantitative_research\\video_compression\\compressed_videos\\UVG\\hevc\\1.5\\Beauty_1920x1080_120fps_420_8bit_YUV_hevc.mp4':\n  Metadata:\n    encoder         : Lavf62.3.100\n  Stream #0:0: Video: hevc (hev1 / 0x31766568), yuv420p10le(tv, progressive), 1920x1080, q=2-31, 1500 kb/s, 120 fps, 15360 tbn\n    Metadata:\n      encoder         : Lavc62.11.100 libx265\n    Side data:\n      cpb: bitrate max/min/avg: 1500000/0/1500000 buffer size: 1500000 vbv_delay: N/A\nframe=    0 fps=0.0 q=0.0 size=       0KiB time=N/A bitrate=N/A speed=N/A elapsed=0:00:00.52    \nframe=   11 fps= 11 q=49.3 size=       0KiB time=00:00:00.07 bitrate=   4.7kbits/s speed=0.0721x elapsed=0:00:01.04    \nframe=   19 fps= 12 q=47.7 size=       0KiB time=00:00:00.14 bitrate=   2.5kbits/s speed=0.0913x elapsed=0:00:01.55    \nframe=   28 fps= 13 q=44.5 size=       0KiB time=00:00:00.21 bitrate=   1.6kbits/s speed=0.104x elapsed=0:00:02.07    \nframe=   37 fps= 14 q=40.8 size=       0KiB time=00:00:00.29 bitrate=   1.2kbits/s speed=0.112x elapsed=0:00:02.59    \nframe=   44 fps= 14 q=44.5 size=       0KiB time=00:00:00.35 bitrate=   1.0kbits/s speed=0.112x elapsed=0:00:03.12    \nframe=   52 fps= 14 q=40.9 size=       0KiB time=00:00:00.41 bitrate=   0.8kbits/s speed=0.114x elapsed=0:00:03.64    \nframe=   60 fps= 14 q=44.6 size=       0KiB time=00:00:00.48 bitrate=   0.7kbits/s speed=0.116x elapsed=0:00:04.16    \nframe=   68 fps= 15 q=43.1 size=       0KiB time=00:00:00.55 bitrate=   0.6kbits/s speed=0.118x elapsed=0:00:04.66    \nframe=   75 fps= 14 q=43.5 size=       0KiB time=00:00:00.60 bitrate=   0.6kbits/s speed=0.117x elapsed=0:00:05.18    \nframe=   82 fps= 14 q=40.8 size=       0KiB time=00:00:00.66 bitrate=   0.5kbits/s speed=0.117x elapsed=0:00:05.69    \nframe=   89 fps= 14 q=44.3 size=       0KiB time=00:00:00.72 bitrate=   0.5kbits/s speed=0.117x elapsed=0:00:06.22    \nframe=   95 fps= 14 q=44.4 size=       0KiB time=00:00:00.77 bitrate=   0.5kbits/s speed=0.115x elapsed=0:00:06.73    \nframe=  102 fps= 14 q=41.2 size=       0KiB time=00:00:00.83 bitrate=   0.4kbits/s speed=0.115x elapsed=0:00:07.24    \nframe=  109 fps= 14 q=44.5 size=       0KiB time=00:00:00.89 bitrate=   0.4kbits/s speed=0.115x elapsed=0:00:07.76    \nframe=  117 fps= 14 q=40.9 size=       0KiB time=00:00:00.95 bitrate=   0.4kbits/s speed=0.116x elapsed=0:00:08.27    \nframe=  123 fps= 14 q=43.5 size=       0KiB time=00:00:01.00 bitrate=   0.3kbits/s speed=0.115x elapsed=0:00:08.78    \nframe=  130 fps= 14 q=44.5 size=       0KiB time=00:00:01.06 bitrate=   0.3kbits/s speed=0.115x elapsed=0:00:09.31    \nframe=  137 fps= 14 q=41.1 size=       0KiB time=00:00:01.12 bitrate=   0.3kbits/s speed=0.114x elapsed=0:00:09.82    \nframe=  144 fps= 14 q=44.6 size=       0KiB time=00:00:01.18 bitrate=   0.3kbits/s speed=0.114x elapsed=0:00:10.34    \nframe=  151 fps= 14 q=44.6 size=       0KiB time=00:00:01.24 bitrate=   0.3kbits/s speed=0.114x elapsed=0:00:10.86    \nframe=  159 fps= 14 q=43.5 size=       0KiB time=00:00:01.30 bitrate=   0.3kbits/s speed=0.115x elapsed=0:00:11.37    \nframe=  165 fps= 14 q=43.2 size=       0KiB time=00:00:01.35 bitrate=   0.3kbits/s speed=0.114x elapsed=0:00:11.88    \nframe=  172 fps= 14 q=41.0 size=       0KiB time=00:00:01.41 bitrate=   0.2kbits/s speed=0.114x elapsed=0:00:12.40    \nframe=  179 fps= 14 q=44.5 size=     256KiB time=00:00:01.47 bitrate=1422.0kbits/s speed=0.114x elapsed=0:00:12.91    \nframe=  185 fps= 14 q=44.2 size=     256KiB time=00:00:01.52 bitrate=1375.4kbits/s speed=0.114x elapsed=0:00:13.42    \nframe=  192 fps= 14 q=40.7 size=     256KiB time=00:00:01.58 bitrate=1324.7kbits/s speed=0.114x elapsed=0:00:13.94    \nframe=  199 fps= 14 q=44.4 size=     256KiB time=00:00:01.64 bitrate=1277.7kbits/s speed=0.113x elapsed=0:00:14.46    \nframe=  204 fps= 14 q=44.2 size=     256KiB time=00:00:01.68 bitrate=1246.0kbits/s speed=0.112x elapsed=0:00:14.98    \nframe=  210 fps= 14 q=44.1 size=     256KiB time=00:00:01.73 bitrate=1210.1kbits/s speed=0.112x elapsed=0:00:15.49    \nframe=  217 fps= 14 q=40.6 size=     256KiB time=00:00:01.79 bitrate=1170.7kbits/s speed=0.112x elapsed=0:00:16.01    \nframe=  224 fps= 14 q=44.4 size=     256KiB time=00:00:01.85 bitrate=1133.8kbits/s speed=0.112x elapsed=0:00:16.53    \nframe=  231 fps= 14 q=44.9 size=     256KiB time=00:00:01.90 bitrate=1099.1kbits/s speed=0.112x elapsed=0:00:17.04    \nframe=  238 fps= 14 q=43.1 size=     256KiB time=00:00:01.96 bitrate=1066.5kbits/s speed=0.112x elapsed=0:00:17.56    \nframe=  248 fps= 14 q=43.5 size=     256KiB time=00:00:02.05 bitrate=1023.2kbits/s speed=0.113x elapsed=0:00:18.07    \nframe=  258 fps= 14 q=43.3 size=     256KiB time=00:00:02.13 bitrate= 983.2kbits/s speed=0.115x elapsed=0:00:18.58    \nframe=  266 fps= 14 q=44.8 size=     256KiB time=00:00:02.20 bitrate= 953.4kbits/s speed=0.115x elapsed=0:00:19.10    \nframe=  275 fps= 14 q=44.7 size=     256KiB time=00:00:02.27 bitrate= 922.0kbits/s speed=0.116x elapsed=0:00:19.62    \nframe=  283 fps= 14 q=43.4 size=     256KiB time=00:00:02.34 bitrate= 895.7kbits/s speed=0.116x elapsed=0:00:20.13    \nframe=  291 fps= 14 q=44.8 size=     256KiB time=00:00:02.40 bitrate= 870.9kbits/s speed=0.117x elapsed=0:00:20.65    \nframe=  300 fps= 14 q=44.7 size=     256KiB time=00:00:02.48 bitrate= 844.6kbits/s speed=0.117x elapsed=0:00:21.17    \nframe=  309 fps= 14 q=44.6 size=     256KiB time=00:00:02.55 bitrate= 819.9kbits/s speed=0.118x elapsed=0:00:21.69    \nframe=  318 fps= 14 q=43.0 size=     256KiB time=00:00:02.63 bitrate= 796.5kbits/s speed=0.119x elapsed=0:00:22.21    \nframe=  326 fps= 14 q=44.8 size=     256KiB time=00:00:02.70 bitrate= 776.9kbits/s speed=0.119x elapsed=0:00:22.73    \nframe=  335 fps= 14 q=44.5 size=     256KiB time=00:00:02.77 bitrate= 755.9kbits/s speed=0.119x elapsed=0:00:23.25    \nframe=  344 fps= 14 q=44.5 size=     512KiB time=00:00:02.85 bitrate=1471.8kbits/s speed=0.12x elapsed=0:00:23.76    \nframe=  352 fps= 14 q=40.4 size=     512KiB time=00:00:02.91 bitrate=1438.2kbits/s speed=0.12x elapsed=0:00:24.28    \nframe=  360 fps= 15 q=44.2 size=     512KiB time=00:00:02.98 bitrate=1406.0kbits/s speed=0.12x elapsed=0:00:24.78    \nframe=  370 fps= 15 q=44.4 size=     512KiB time=00:00:03.06 bitrate=1367.8kbits/s speed=0.121x elapsed=0:00:25.31    \nframe=  379 fps= 15 q=44.1 size=     512KiB time=00:00:03.14 bitrate=1335.2kbits/s speed=0.122x elapsed=0:00:25.82    \nframe=  386 fps= 15 q=44.5 size=     512KiB time=00:00:03.20 bitrate=1310.8kbits/s speed=0.122x elapsed=0:00:26.33    \nframe=  395 fps= 15 q=43.9 size=     512KiB time=00:00:03.27 bitrate=1280.8kbits/s speed=0.122x elapsed=0:00:26.84    \nframe=  403 fps= 15 q=42.6 size=     512KiB time=00:00:03.34 bitrate=1255.3kbits/s speed=0.122x elapsed=0:00:27.36    \nframe=  412 fps= 15 q=40.4 size=     512KiB time=00:00:03.41 bitrate=1227.7kbits/s speed=0.123x elapsed=0:00:27.88    \nframe=  420 fps= 15 q=44.0 size=     512KiB time=00:00:03.48 bitrate=1204.2kbits/s speed=0.123x elapsed=0:00:28.39    \nframe=  429 fps= 15 q=43.9 size=     512KiB time=00:00:03.55 bitrate=1178.8kbits/s speed=0.123x elapsed=0:00:28.91    \nframe=  436 fps= 15 q=44.0 size=     512KiB time=00:00:03.61 bitrate=1159.8kbits/s speed=0.123x elapsed=0:00:29.43    \nframe=  444 fps= 15 q=43.9 size=     512KiB time=00:00:03.68 bitrate=1138.8kbits/s speed=0.123x elapsed=0:00:29.95    \nframe=  453 fps= 15 q=42.8 size=     512KiB time=00:00:03.75 bitrate=1116.1kbits/s speed=0.123x elapsed=0:00:30.47    \nframe=  461 fps= 15 q=44.5 size=     512KiB time=00:00:03.82 bitrate=1096.6kbits/s speed=0.123x elapsed=0:00:30.98    \nframe=  470 fps= 15 q=44.0 size=     512KiB time=00:00:03.90 bitrate=1075.6kbits/s speed=0.124x elapsed=0:00:31.49    \nframe=  479 fps= 15 q=44.0 size=     512KiB time=00:00:03.97 bitrate=1055.3kbits/s speed=0.124x elapsed=0:00:32.01    \nframe=  487 fps= 15 q=40.4 size=     512KiB time=00:00:04.04 bitrate=1037.9kbits/s speed=0.124x elapsed=0:00:32.52    \nframe=  495 fps= 15 q=44.2 size=     512KiB time=00:00:04.10 bitrate=1021.0kbits/s speed=0.124x elapsed=0:00:33.04    \nframe=  506 fps= 15 q=44.5 size=     768KiB time=00:00:04.20 bitrate=1498.0kbits/s speed=0.125x elapsed=0:00:33.56    \nframe=  515 fps= 15 q=44.3 size=     768KiB time=00:00:04.27 bitrate=1471.8kbits/s speed=0.125x elapsed=0:00:34.09    \nframe=  524 fps= 15 q=44.0 size=     768KiB time=00:00:04.35 bitrate=1446.4kbits/s speed=0.126x elapsed=0:00:34.60    \nframe=  534 fps= 15 q=44.3 size=     768KiB time=00:00:04.43 bitrate=1419.2kbits/s speed=0.126x elapsed=0:00:35.12    \nframe=  543 fps= 15 q=42.7 size=     768KiB time=00:00:04.50 bitrate=1395.6kbits/s speed=0.126x elapsed=0:00:35.64    \nframe=  552 fps= 15 q=40.4 size=     768KiB time=00:00:04.58 bitrate=1372.8kbits/s speed=0.127x elapsed=0:00:36.14    \nframe=  561 fps= 15 q=44.5 size=     768KiB time=00:00:04.65 bitrate=1350.7kbits/s speed=0.127x elapsed=0:00:36.66    \nframe=  570 fps= 15 q=44.1 size=     768KiB time=00:00:04.73 bitrate=1329.3kbits/s speed=0.127x elapsed=0:00:37.18    \nframe=  579 fps= 15 q=44.2 size=     768KiB time=00:00:04.80 bitrate=1308.5kbits/s speed=0.128x elapsed=0:00:37.70    \nframe=  589 fps= 15 q=44.5 size=     768KiB time=00:00:04.89 bitrate=1286.2kbits/s speed=0.128x elapsed=0:00:38.22    \nframe=  599 fps= 15 q=44.4 size=     768KiB time=00:00:04.97 bitrate=1264.7kbits/s speed=0.128x elapsed=0:00:38.73    \n[mp4 @ 000002080a639b80] Starting second pass: moving the moov atom to the beginning of the file\n[out#0/mp4 @ 000002080a639a80] video:911KiB audio:0KiB subtitle:0KiB other streams:0KiB global headers:2KiB muxing overhead: 1.096663%\nframe=  600 fps= 15 q=44.6 Lsize=     921KiB time=00:00:04.98 bitrate=1513.5kbits/s speed=0.129x elapsed=0:00:38.75    \nx265 [info]: frame I:      3, Avg QP:42.97  kb/s: 5484.48 \nx265 [info]: frame P:    118, Avg QP:40.88  kb/s: 3567.25 \nx265 [info]: frame B:    479, Avg QP:44.23  kb/s: 951.07  \nx265 [info]: Weighted P-Frames: Y:0.0% UV:0.0%\n\nencoded 600 frames in 38.70s (15.50 fps), 1488.25 kb/s, Avg QP:43.57\n",
  "seconds": 38.83693718910217,
  "probe_out": {}
}